<?xml version="1.0" standalone="no"?>
<!DOCTYPE svg PUBLIC "-//W3C//DTD SVG 20010904//EN"
 "http://www.w3.org/TR/2001/REC-SVG-20010904/DTD/svg10.dtd">
<svg version="1.0" xmlns="http://www.w3.org/2000/svg"
 width="500.000000pt" height="500.000000pt" viewBox="0 0 500.000000 500.000000"
 preserveAspectRatio="xMidYMid meet">
<metadata>
Created by potrace 1.14, written by Peter Selinger 2001-2017
</metadata>
<g transform="translate(0.000000,500.000000) scale(0.100000,-0.100000)"
fill="#000000" stroke="none">
<path d="M1606 3148 c40 -65 202 -257 304 -359 185 -186 360 -312 582 -419
272 -132 591 -209 927 -226 l130 -7 -14 -28 -15 -27 58 13 c393 92 770 388
832 653 28 121 -33 255 -145 315 -35 19 -55 22 -155 21 -101 -1 -126 -5 -202
-31 l-88 -31 0 69 0 69 -1111 0 c-885 0 -1109 -3 -1103 -12z m2510 -247 c86
-39 111 -121 64 -216 -29 -60 -180 -215 -295 -301 -66 -50 -254 -179 -303
-208 -7 -4 2 23 21 61 53 105 105 252 147 415 20 82 45 157 54 167 19 21 124
79 165 91 45 14 104 10 147 -9z"/>
<path d="M1090 1703 c0 -70 115 -189 244 -252 164 -81 89 -76 1201 -76 l990 0
80 27 c200 69 355 198 355 296 l0 22 -1435 0 c-1339 0 -1435 -1 -1435 -17z"/>
</g>
</svg>
